<svg width="1024" height="1024" viewBox="0 0 1024 1024" fill="none" xmlns="http://www.w3.org/2000/svg">
<g filter="url(#filter0_d_27_34)">
<rect x="100" y="100" width="824" height="824" rx="184" fill="#8DD5F6"/>
</g>
<path d="M401.369 416.09C431.442 445.449 438.237 472.732 425.908 497.332C412.565 523.949 381.812 538.335 331.264 538.757C287.698 539.124 275.916 517.488 267.08 505.053C250.133 481.212 258.909 452.289 274.801 433.716C294.107 411.154 308.359 409.206 324.034 417.647C332.445 422.176 344.875 432.731 345.158 451.971C345.325 463.428 337.574 481.179 337.574 483.426C337.574 485.674 339.402 487.078 341.367 486.235C343.337 485.391 359.118 477.042 368.052 465.591C376.044 455.349 384.622 418.126 382.94 413.35C381.253 408.576 369.11 398.646 368.267 393.309C367.765 390.138 367.392 386.083 365.899 382.759C364.881 380.49 362.089 378.402 360.609 377.262C356.957 374.449 347.408 377.964 343.476 373.047C340.107 368.834 338.703 359.987 334.209 358.866C332.167 358.352 328.242 357.53 324.651 358.262C319.493 359.316 315.615 362.428 311.601 361.952C305.993 361.297 301.208 352.403 293.624 352.968C286.082 353.524 276.493 366.447 266.1 377.684C255.707 388.92 237.259 403.108 224.252 425.993C214.823 442.584 207.118 462.227 211.05 490.031C214.985 517.837 221.832 536.575 244.193 557.014C267.191 578.039 285.759 584.118 299.521 588.894C313.288 593.667 322.832 598.123 337.72 598.584C342.852 598.742 353.777 599.081 357.4 598.69C366.573 597.705 364.707 593.67 373.25 592.261C406.529 586.785 430.227 569.411 444.629 554.742C448.293 551.01 457.908 540.745 459.701 538.973C460.151 541.53 460.288 549.733 459.996 551.866C458 566.476 448.884 574.654 434.274 582.445C413.421 593.566 383.14 609.912 362.376 624.445C343.17 637.893 326.232 650.962 320.273 672.41C314.315 693.859 315.509 706.17 322.062 720.966C328.041 734.461 338.943 748.869 357.212 759.396C372.326 768.102 385.553 775.759 400.132 783.246C410.165 788.399 427.715 797.128 426.127 815.4C424.518 833.925 412.523 843.727 404.383 847.275C390.399 853.375 371.24 854.968 370.418 855.618C368.976 856.77 387.099 872.089 401.004 872C416.191 871.905 421.575 870.883 435.657 865.947C447.904 861.654 453.236 850.953 455.222 850.555C457.208 850.156 460.116 850.392 462.769 848.465C465.358 846.585 473.59 840.221 474.582 836.449C475.574 832.674 475.777 826.322 476.768 822.944C477.76 819.568 481.733 808.15 481.931 801.996C482.131 795.837 483.724 781.736 478.206 773.643C473.635 766.935 476.019 763.413 472.195 759.792C471.561 759.188 468.353 754.938 465.415 753.838C461.614 752.417 459.628 753.659 456.904 752.146C452.555 749.729 447.36 733.427 441.079 732.975C438.789 732.812 436.126 732.949 433.81 733.505C428.648 734.751 406.049 735.338 401.989 733.773C395.71 731.356 375.229 718.282 376.965 699.415C378.464 683.205 390.008 672.174 405.66 666.444C419.638 661.329 424.527 661.779 434.06 657.211C443.461 652.708 450.051 646.985 457.199 643.213C464.347 639.439 474.028 634.922 481.375 628.763C485.566 625.253 489.765 621.273 493.732 616.281C497.132 612.019 503.625 600.443 510.555 594.704C520.035 609.201 529.302 621.966 536.144 629.901C553.518 650.057 577.253 662.321 588.373 669.271C599.494 676.219 625.01 695.348 635.942 710.637C647.661 727.019 642.294 749.46 635.839 757.999C630.252 765.394 617.57 774.984 600.092 774.585C581.399 774.161 563.491 766.492 552.528 752.339C541.605 738.236 537.35 711.761 546.668 704.775C556.689 697.264 566.509 700.84 572.684 701.594C577.521 702.186 582.118 699.608 582.914 695.636C583.706 691.663 582.417 686.895 577.055 682.727C574.209 680.514 568.973 676.846 561.752 676.936C557.794 676.983 550.332 678.901 540.213 678.549C529.469 678.177 518.888 679.325 509.171 688.308C501.18 695.704 496.592 701.542 493.603 710.806C492.465 714.329 493.843 721.906 493.367 726.413C492.891 730.967 491.013 734.532 490.978 738.038C490.921 743.247 491.774 749.625 492.959 755.848C494.281 762.777 496.8 770.783 499.919 777.87C501.194 780.772 502.221 784.747 503.861 786.507C505.852 788.651 509.657 790.868 513.264 794.388C520.092 801.049 528.011 809.648 534.252 812.118C542.003 815.188 557.688 809.832 562.058 811.222C566.424 812.61 572.036 819.454 578.786 819.257C585.541 819.059 626.923 817.113 641.199 811.42C659.034 804.303 689.802 784.698 695.85 757.41C703.307 723.765 689.173 700.746 674.987 683.907C657.472 663.117 624.612 636.263 599.819 618.472C585.617 608.284 580.233 600.533 574.741 591.283C570.568 584.255 566.146 572.38 568.363 561.488C578.581 566.839 593.177 583.498 597.449 588.818C602.95 595.663 609.96 599.828 615.383 602.491C620.183 604.849 626.174 603.497 630.74 604.293C635.306 605.085 632.036 608.826 640.179 611.609C648.324 614.386 684.322 621.042 692.985 620.738C696.524 620.614 701.267 617.871 706.867 616.116C712.23 614.434 721.4 613.68 746.864 603.732C781.783 590.091 796.457 567.845 808.259 541.242C820.06 514.64 812.068 480.67 805.186 465.235C798.304 449.801 784.794 429.315 770.891 408.063C756.988 386.811 739.567 365.119 747.335 321.564C755.103 278.01 788.35 264.653 793.076 256.647C796.855 250.239 785.607 243.76 782.803 242.424C779.401 240.81 775.702 239.552 766.766 239.158C766.21 239.132 765.665 239.128 765.142 239.149C757.266 239.432 753.072 244.375 749.828 245.463C746.31 246.641 730.887 245.708 728.75 246.153C726.413 246.641 722.316 251.577 721.44 252.835C719.908 255.048 721.089 255.601 718.904 260.172C716.718 264.738 701.137 277.734 696.868 285.837C694.583 290.177 697.146 299.153 694.364 305.112C691.586 311.07 683.243 310.778 681.466 317.312C680.161 322.118 682.656 337.557 680.555 345.092C678.375 352.9 673.856 349.38 673.574 357.344C673.175 368.563 693.011 386.451 696.387 391.613C699.764 396.78 701.121 399.819 705.296 409.257C709.954 419.787 716.223 426.348 720.94 431.699C725.662 437.05 738.648 445.246 742.003 450.981C743.865 454.171 741.836 460.262 743.099 464.255C744.289 468.03 747.7 471.335 753.06 479.082C758.423 486.824 756.625 506.983 751.776 519.163C746.928 531.349 733.712 547.495 711.108 553.838C688.504 560.18 631.746 554.99 609.017 495.355C598.563 467.926 603.363 435.836 627.786 410.591C652.206 385.346 670.424 346.732 670.482 306.509C670.482 221.174 598.054 152 511.478 152C424.902 152 354.717 221.174 354.717 306.509C354.769 347.467 371.294 386.731 401.369 416.09Z" fill="#1386C8"/>
<path d="M487.917 242.655C530.324 242.655 564.704 277.03 564.704 319.441C564.704 361.848 530.324 396.224 487.917 396.224C445.51 396.224 411.13 361.848 411.13 319.441C411.13 277.03 445.51 242.655 487.917 242.655Z" fill="white"/>
<path d="M477.964 312.842C487.671 312.842 495.54 320.709 495.54 330.419C495.54 340.126 487.673 347.996 477.964 347.996C468.256 347.996 460.387 340.129 460.387 330.419C460.389 320.712 468.256 312.842 477.964 312.842Z" fill="#1386C8"/>
<defs>
<filter id="filter0_d_27_34" x="78" y="89" width="868" height="868" filterUnits="userSpaceOnUse" color-interpolation-filters="sRGB">
<feFlood flood-opacity="0" result="BackgroundImageFix"/>
<feColorMatrix in="SourceAlpha" type="matrix" values="0 0 0 0 0 0 0 0 0 0 0 0 0 0 0 0 0 0 127 0" result="hardAlpha"/>
<feOffset dy="11"/>
<feGaussianBlur stdDeviation="11"/>
<feColorMatrix type="matrix" values="0 0 0 0 0 0 0 0 0 0 0 0 0 0 0 0 0 0 0.28 0"/>
<feBlend mode="normal" in2="BackgroundImageFix" result="effect1_dropShadow_27_34"/>
<feBlend mode="normal" in="SourceGraphic" in2="effect1_dropShadow_27_34" result="shape"/>
</filter>
</defs>
</svg>
